<svg width="172" height="27" viewBox="0 0 172 27" fill="none" xmlns="http://www.w3.org/2000/svg">
<path d="M46.386 17.6552C46.518 17.6552 46.635 17.7062 46.737 17.8082L47.691 18.8432C47.163 19.4972 46.512 19.9982 45.738 20.3462C44.97 20.6942 44.046 20.8682 42.966 20.8682C42 20.8682 41.13 20.7032 40.356 20.3732C39.588 20.0432 38.931 19.5842 38.385 18.9962C37.839 18.4082 37.419 17.7062 37.125 16.8902C36.837 16.0742 36.693 15.1832 36.693 14.2172C36.693 13.2392 36.849 12.3452 37.161 11.5352C37.473 10.7192 37.911 10.0172 38.475 9.42915C39.045 8.84115 39.723 8.38515 40.509 8.06115C41.295 7.73115 42.165 7.56615 43.119 7.56615C44.067 7.56615 44.907 7.72215 45.639 8.03415C46.377 8.34615 47.004 8.75415 47.52 9.25815L46.71 10.3832C46.662 10.4552 46.599 10.5182 46.521 10.5722C46.449 10.6262 46.347 10.6532 46.215 10.6532C46.125 10.6532 46.032 10.6292 45.936 10.5812C45.84 10.5272 45.735 10.4642 45.621 10.3922C45.507 10.3142 45.375 10.2302 45.225 10.1402C45.075 10.0502 44.901 9.96915 44.703 9.89715C44.505 9.81915 44.274 9.75615 44.01 9.70815C43.752 9.65415 43.452 9.62715 43.11 9.62715C42.528 9.62715 41.994 9.73215 41.508 9.94215C41.028 10.1462 40.614 10.4462 40.266 10.8422C39.918 11.2322 39.648 11.7122 39.456 12.2822C39.264 12.8462 39.168 13.4912 39.168 14.2172C39.168 14.9492 39.27 15.6002 39.474 16.1702C39.684 16.7402 39.966 17.2202 40.32 17.6102C40.674 18.0002 41.091 18.3002 41.571 18.5102C42.051 18.7142 42.567 18.8162 43.119 18.8162C43.449 18.8162 43.746 18.7982 44.01 18.7622C44.28 18.7262 44.526 18.6692 44.748 18.5912C44.976 18.5132 45.189 18.4142 45.387 18.2942C45.591 18.1682 45.792 18.0152 45.99 17.8352C46.05 17.7812 46.113 17.7392 46.179 17.7092C46.245 17.6732 46.314 17.6552 46.386 17.6552ZM56.9724 18.7262V20.7242H49.3494V7.71015H51.7704V18.7262H56.9724ZM70.6549 14.2172C70.6549 15.1712 70.4959 16.0562 70.1779 16.8722C69.8659 17.6822 69.4219 18.3842 68.8459 18.9782C68.2699 19.5722 67.5769 20.0372 66.7669 20.3732C65.9569 20.7032 65.0569 20.8682 64.0669 20.8682C63.0829 20.8682 62.1859 20.7032 61.3759 20.3732C60.5659 20.0372 59.8699 19.5722 59.2879 18.9782C58.7119 18.3842 58.2649 17.6822 57.9469 16.8722C57.6289 16.0562 57.4699 15.1712 57.4699 14.2172C57.4699 13.2632 57.6289 12.3812 57.9469 11.5712C58.2649 10.7552 58.7119 10.0502 59.2879 9.45615C59.8699 8.86215 60.5659 8.40015 61.3759 8.07015C62.1859 7.73415 63.0829 7.56615 64.0669 7.56615C64.7269 7.56615 65.3479 7.64415 65.9299 7.80015C66.5119 7.95015 67.0459 8.16615 67.5319 8.44815C68.0179 8.72415 68.4529 9.06315 68.8369 9.46515C69.2269 9.86115 69.5569 10.3052 69.8269 10.7972C70.0969 11.2892 70.3009 11.8232 70.4389 12.3992C70.5829 12.9752 70.6549 13.5812 70.6549 14.2172ZM68.1799 14.2172C68.1799 13.5032 68.0839 12.8642 67.8919 12.3002C67.6999 11.7302 67.4269 11.2472 67.0729 10.8512C66.7189 10.4552 66.2869 10.1522 65.7769 9.94215C65.2729 9.73215 64.7029 9.62715 64.0669 9.62715C63.4309 9.62715 62.8579 9.73215 62.3479 9.94215C61.8439 10.1522 61.4119 10.4552 61.0519 10.8512C60.6979 11.2472 60.4249 11.7302 60.2329 12.3002C60.0409 12.8642 59.9449 13.5032 59.9449 14.2172C59.9449 14.9312 60.0409 15.5732 60.2329 16.1432C60.4249 16.7072 60.6979 17.1872 61.0519 17.5832C61.4119 17.9732 61.8439 18.2732 62.3479 18.4832C62.8579 18.6932 63.4309 18.7982 64.0669 18.7982C64.7029 18.7982 65.2729 18.6932 65.7769 18.4832C66.2869 18.2732 66.7189 17.9732 67.0729 17.5832C67.4269 17.1872 67.6999 16.7072 67.8919 16.1432C68.0839 15.5732 68.1799 14.9312 68.1799 14.2172ZM78.019 18.7712C78.487 18.7712 78.904 18.6932 79.27 18.5372C79.642 18.3812 79.954 18.1622 80.206 17.8802C80.458 17.5982 80.65 17.2562 80.782 16.8542C80.92 16.4522 80.989 16.0022 80.989 15.5042V7.71015H83.41V15.5042C83.41 16.2782 83.284 16.9952 83.032 17.6552C82.786 18.3092 82.429 18.8762 81.961 19.3562C81.499 19.8302 80.935 20.2022 80.269 20.4722C79.603 20.7362 78.853 20.8682 78.019 20.8682C77.179 20.8682 76.426 20.7362 75.76 20.4722C75.094 20.2022 74.527 19.8302 74.059 19.3562C73.597 18.8762 73.24 18.3092 72.988 17.6552C72.742 16.9952 72.619 16.2782 72.619 15.5042V7.71015H75.04V15.4952C75.04 15.9932 75.106 16.4432 75.238 16.8452C75.376 17.2472 75.571 17.5922 75.823 17.8802C76.081 18.1622 76.393 18.3812 76.759 18.5372C77.131 18.6932 77.551 18.7712 78.019 18.7712ZM97.6964 14.2172C97.6964 15.1712 97.5374 16.0472 97.2194 16.8452C96.9014 17.6432 96.4544 18.3302 95.8784 18.9062C95.3024 19.4822 94.6094 19.9292 93.7994 20.2472C92.9894 20.5652 92.0894 20.7242 91.0994 20.7242H86.1404V7.71015H91.0994C92.0894 7.71015 92.9894 7.87215 93.7994 8.19615C94.6094 8.51415 95.3024 8.96115 95.8784 9.53715C96.4544 10.1072 96.9014 10.7912 97.2194 11.5892C97.5374 12.3872 97.6964 13.2632 97.6964 14.2172ZM95.2124 14.2172C95.2124 13.5032 95.1164 12.8642 94.9244 12.3002C94.7384 11.7302 94.4654 11.2502 94.1054 10.8602C93.7514 10.4642 93.3194 10.1612 92.8094 9.95115C92.3054 9.74115 91.7354 9.63615 91.0994 9.63615H88.5704V18.7982H91.0994C91.7354 18.7982 92.3054 18.6932 92.8094 18.4832C93.3194 18.2732 93.7514 17.9732 94.1054 17.5832C94.4654 17.1872 94.7384 16.7072 94.9244 16.1432C95.1164 15.5732 95.2124 14.9312 95.2124 14.2172ZM104.703 18.8342C105.153 18.8342 105.531 18.7802 105.837 18.6722C106.143 18.5642 106.386 18.4202 106.566 18.2402C106.752 18.0602 106.884 17.8502 106.962 17.6102C107.046 17.3702 107.088 17.1152 107.088 16.8452C107.088 16.5632 107.043 16.3112 106.953 16.0892C106.863 15.8612 106.722 15.6692 106.53 15.5132C106.338 15.3512 106.089 15.2282 105.783 15.1442C105.483 15.0602 105.12 15.0182 104.694 15.0182H102.255V18.8342H104.703ZM102.255 9.58215V13.3442H104.181C105.009 13.3442 105.633 13.1942 106.053 12.8942C106.479 12.5942 106.692 12.1172 106.692 11.4632C106.692 10.7852 106.5 10.3022 106.116 10.0142C105.732 9.72615 105.132 9.58215 104.316 9.58215H102.255ZM104.316 7.71015C105.168 7.71015 105.897 7.79115 106.503 7.95315C107.109 8.11515 107.604 8.34615 107.988 8.64615C108.378 8.94615 108.663 9.30915 108.843 9.73515C109.023 10.1612 109.113 10.6412 109.113 11.1752C109.113 11.4812 109.068 11.7752 108.978 12.0572C108.888 12.3332 108.747 12.5942 108.555 12.8402C108.369 13.0802 108.129 13.2992 107.835 13.4972C107.547 13.6952 107.202 13.8632 106.8 14.0012C108.588 14.4032 109.482 15.3692 109.482 16.8992C109.482 17.4512 109.377 17.9612 109.167 18.4292C108.957 18.8972 108.651 19.3022 108.249 19.6442C107.847 19.9802 107.352 20.2442 106.764 20.4362C106.176 20.6282 105.504 20.7242 104.748 20.7242H99.8338V7.71015H104.316ZM116.919 18.7712C117.387 18.7712 117.804 18.6932 118.17 18.5372C118.542 18.3812 118.854 18.1622 119.106 17.8802C119.358 17.5982 119.55 17.2562 119.682 16.8542C119.82 16.4522 119.889 16.0022 119.889 15.5042V7.71015H122.31V15.5042C122.31 16.2782 122.184 16.9952 121.932 17.6552C121.686 18.3092 121.329 18.8762 120.861 19.3562C120.399 19.8302 119.835 20.2022 119.169 20.4722C118.503 20.7362 117.753 20.8682 116.919 20.8682C116.079 20.8682 115.326 20.7362 114.66 20.4722C113.994 20.2022 113.427 19.8302 112.959 19.3562C112.497 18.8762 112.14 18.3092 111.888 17.6552C111.642 16.9952 111.519 16.2782 111.519 15.5042V7.71015H113.94V15.4952C113.94 15.9932 114.006 16.4432 114.138 16.8452C114.276 17.2472 114.471 17.5922 114.723 17.8802C114.981 18.1622 115.293 18.3812 115.659 18.5372C116.031 18.6932 116.451 18.7712 116.919 18.7712ZM136.597 14.2172C136.597 15.1712 136.438 16.0472 136.12 16.8452C135.802 17.6432 135.355 18.3302 134.779 18.9062C134.203 19.4822 133.51 19.9292 132.7 20.2472C131.89 20.5652 130.99 20.7242 130 20.7242H125.041V7.71015H130C130.99 7.71015 131.89 7.87215 132.7 8.19615C133.51 8.51415 134.203 8.96115 134.779 9.53715C135.355 10.1072 135.802 10.7912 136.12 11.5892C136.438 12.3872 136.597 13.2632 136.597 14.2172ZM134.113 14.2172C134.113 13.5032 134.017 12.8642 133.825 12.3002C133.639 11.7302 133.366 11.2502 133.006 10.8602C132.652 10.4642 132.22 10.1612 131.71 9.95115C131.206 9.74115 130.636 9.63615 130 9.63615H127.471V18.7982H130C130.636 18.7982 131.206 18.6932 131.71 18.4832C132.22 18.2732 132.652 17.9732 133.006 17.5832C133.366 17.1872 133.639 16.7072 133.825 16.1432C134.017 15.5732 134.113 14.9312 134.113 14.2172ZM149.462 14.1992V19.4642C148.802 19.9502 148.097 20.3072 147.347 20.5352C146.603 20.7572 145.805 20.8682 144.953 20.8682C143.891 20.8682 142.928 20.7032 142.064 20.3732C141.206 20.0432 140.471 19.5842 139.859 18.9962C139.253 18.4082 138.785 17.7062 138.455 16.8902C138.125 16.0742 137.96 15.1832 137.96 14.2172C137.96 13.2392 138.119 12.3422 138.437 11.5262C138.755 10.7102 139.205 10.0082 139.787 9.42015C140.375 8.83215 141.086 8.37615 141.92 8.05215C142.754 7.72815 143.69 7.56615 144.728 7.56615C145.256 7.56615 145.748 7.60815 146.204 7.69215C146.666 7.77615 147.092 7.89315 147.482 8.04315C147.878 8.18715 148.238 8.36415 148.562 8.57415C148.886 8.78415 149.183 9.01515 149.453 9.26715L148.76 10.3652C148.652 10.5392 148.511 10.6472 148.337 10.6892C148.163 10.7252 147.974 10.6802 147.77 10.5542C147.572 10.4402 147.374 10.3262 147.176 10.2122C146.978 10.0982 146.756 9.99915 146.51 9.91515C146.27 9.83115 145.997 9.76215 145.691 9.70815C145.391 9.65415 145.043 9.62715 144.647 9.62715C144.005 9.62715 143.423 9.73515 142.901 9.95115C142.385 10.1672 141.944 10.4762 141.578 10.8782C141.212 11.2802 140.93 11.7632 140.732 12.3272C140.534 12.8912 140.435 13.5212 140.435 14.2172C140.435 14.9612 140.54 15.6272 140.75 16.2152C140.966 16.7972 141.266 17.2922 141.65 17.7002C142.04 18.1022 142.508 18.4112 143.054 18.6272C143.6 18.8372 144.209 18.9422 144.881 18.9422C145.361 18.9422 145.79 18.8912 146.168 18.7892C146.546 18.6872 146.915 18.5492 147.275 18.3752V16.0172H145.637C145.481 16.0172 145.358 15.9752 145.268 15.8912C145.184 15.8012 145.142 15.6932 145.142 15.5672V14.1992H149.462ZM154.225 9.63615V13.2452H158.779V15.1082H154.225V18.7892H160.003V20.7242H151.795V7.71015H160.003V9.63615H154.225ZM171.238 9.69915H167.314V20.7242H164.893V9.69915H160.969V7.71015H171.238V9.69915Z" fill="white"/>
<path d="M22.605 13.05C22.605 12.615 22.75 12.18 22.75 11.6C22.75 8.41002 20.14 5.80002 16.95 5.80002C14.63 5.80002 12.745 7.10502 11.73 8.99002C11.44 8.84502 10.86 8.70002 10.425 8.70002C8.39501 8.70002 6.80001 10.295 6.80001 12.325C6.80001 12.615 6.80001 12.905 6.94501 13.05C4.33501 13.485 2.45001 15.515 2.45001 18.125C2.45001 20.88 4.77001 23.2 7.52501 23.2H22.025C24.78 23.2 27.1 20.88 27.1 18.125C27.1 15.515 25.215 13.34 22.605 13.05Z" fill="white"/>
</svg>
